<svg width="172" height="172" viewBox="0 0 172 172" fill="none" xmlns="http://www.w3.org/2000/svg">
<circle cx="86" cy="86" r="85.5" fill="black" stroke=""/>
<path d="M137 86C137 114.167 114.167 137 86 137C57.8335 137 35 114.167 35 86C35 57.8335 57.8335 35 86 35C114.167 35 137 57.8335 137 86ZM63.1337 86C63.1337 98.6287 73.3713 108.866 86 108.866C98.6287 108.866 108.866 98.6287 108.866 86C108.866 73.3713 98.6287 63.1337 86 63.1337C73.3713 63.1337 63.1337 73.3713 63.1337 86Z" fill="#6854FF"/>
<mask id="path-3-outside-1_49_6" maskUnits="userSpaceOnUse" x="109" y="72" width="30" height="67" fill="black">
<rect fill="white" x="109" y="72" width="30" height="67"/>
<path fill-rule="evenodd" clip-rule="evenodd" d="M137 87V133C137 135.209 135.209 137 133 137H115C112.791 137 111 135.209 111 133V87V86H111.038C111.549 79.2876 117.157 74 124 74C130.843 74 136.451 79.2876 136.962 86H137V87Z"/>
</mask>
<path fill-rule="evenodd" clip-rule="evenodd" d="M137 87V133C137 135.209 135.209 137 133 137H115C112.791 137 111 135.209 111 133V87V86H111.038C111.549 79.2876 117.157 74 124 74C130.843 74 136.451 79.2876 136.962 86H137V87Z" fill="#3D4CF5"/>
<path d="M111 86V84H109V86H111ZM111.038 86V88H112.892L113.032 86.1517L111.038 86ZM136.962 86L134.968 86.1517L135.108 88H136.962V86ZM137 86H139V84H137V86ZM135 87V133H139V87H135ZM135 133C135 134.105 134.105 135 133 135V139C136.314 139 139 136.314 139 133H135ZM133 135H115V139H133V135ZM115 135C113.895 135 113 134.105 113 133H109C109 136.314 111.686 139 115 139V135ZM113 133V87H109V133H113ZM113 87V86H109V87H113ZM111 88H111.038V84H111V88ZM113.032 86.1517C113.464 80.474 118.21 76 124 76V72C116.103 72 109.633 78.1011 109.044 85.8483L113.032 86.1517ZM124 76C129.79 76 134.536 80.474 134.968 86.1517L138.956 85.8483C138.367 78.1011 131.897 72 124 72V76ZM136.962 88H137V84H136.962V88ZM135 86V87H139V86H135Z" fill="black" mask="url(#path-3-outside-1_49_6)"/>
</svg>
