<svg width="38" height="38" viewBox="0 0 38 38" fill="none" xmlns="http://www.w3.org/2000/svg">
<path d="M12.7499 37.229H6.49992C5.7775 37.2598 5.05611 37.1477 4.37702 36.8994C3.69794 36.651 3.0745 36.2713 2.54238 35.7817C2.01023 35.2921 1.57986 34.7023 1.27588 34.0463C0.971877 33.3902 0.800231 32.6806 0.770752 31.9581V6.04155C0.800231 5.31909 0.971877 4.60951 1.27588 3.95345C1.57986 3.29738 2.01023 2.7077 2.54238 2.21813C3.0745 1.72857 3.69794 1.34874 4.37702 1.10038C5.05611 0.852008 5.7775 0.739987 6.49992 0.770716H12.7499C13.1643 0.770716 13.5618 0.935341 13.8548 1.22836C14.1478 1.5214 14.3124 1.91882 14.3124 2.33322C14.3124 2.74763 14.1478 3.14505 13.8548 3.43807C13.5618 3.73111 13.1643 3.89572 12.7499 3.89572H6.49992C5.88131 3.84192 5.26575 4.02832 4.7809 4.4162C4.29602 4.80409 3.97906 5.36374 3.89575 5.97905V31.9581C3.97906 32.5735 4.29602 33.1331 4.7809 33.521C5.26575 33.909 5.88131 34.0954 6.49992 34.0415H12.7499C13.1643 34.0415 13.5618 34.2063 13.8548 34.4992C14.1478 34.7923 14.3124 35.1896 14.3124 35.604C14.3124 36.0185 14.1478 36.4158 13.8548 36.709C13.5618 37.0019 13.1643 37.1665 12.7499 37.1665V37.229Z" fill="white"/>
<path d="M27.3332 28.8956C27.128 28.8967 26.9244 28.8567 26.7349 28.7779C26.5453 28.6992 26.3732 28.5833 26.229 28.4373C25.9365 28.1444 25.7721 27.7473 25.7721 27.3331C25.7721 26.9192 25.9365 26.5219 26.229 26.229L33.4582 18.9998L26.229 11.7706C26.0755 11.6276 25.9524 11.4551 25.8669 11.2634C25.7815 11.0718 25.7357 10.8649 25.7319 10.6551C25.7282 10.4453 25.7669 10.2369 25.8455 10.0423C25.924 9.84775 26.0409 9.67102 26.1894 9.52264C26.3378 9.37427 26.5144 9.25731 26.709 9.17873C26.9036 9.10014 27.1119 9.06154 27.3217 9.06525C27.5315 9.06893 27.7384 9.11487 27.9301 9.20027C28.1217 9.28566 28.2942 9.40879 28.4374 9.56231L36.7707 17.8956C37.0634 18.1885 37.2276 18.5858 37.2276 18.9998C37.2276 19.414 37.0634 19.811 36.7707 20.104L28.4374 28.4373C28.2932 28.5833 28.1211 28.6992 27.9315 28.7779C27.7419 28.8567 27.5384 28.8967 27.3332 28.8956Z" fill="white"/>
<path d="M35.6667 20.5625H12.75C12.3356 20.5625 11.9382 20.3979 11.6451 20.1048C11.3521 19.8119 11.1875 19.4144 11.1875 19C11.1875 18.5856 11.3521 18.1881 11.6451 17.8952C11.9382 17.6021 12.3356 17.4375 12.75 17.4375H35.6667C36.081 17.4375 36.4785 17.6021 36.7715 17.8952C37.0646 18.1881 37.2292 18.5856 37.2292 19C37.2292 19.4144 37.0646 19.8119 36.7715 20.1048C36.4785 20.3979 36.081 20.5625 35.6667 20.5625Z" fill="white"/>
</svg>
